<?xml version="1.0" encoding="UTF-8"?>
<svg id="Layer_1" xmlns="http://www.w3.org/2000/svg" version="1.1" viewBox="0 0 420.53 298.64">
  <!-- Generator: Adobe Illustrator 29.7.1, SVG Export Plug-In . SVG Version: 2.1.1 Build 8)  -->
  <defs>
    <style>
      .st0 {
        fill: #0072ce;
      }

      .st1 {
        font-family: WorkSans-Medium, 'Work Sans';
        font-size: 48px;
        font-weight: 500;
        letter-spacing: .1em;
      }
    </style>
  </defs>
  <g>
    <path d="M95.37,133.17h8.54l6.49,38.96,20.26-38.96h8.89l-25.91,49.41h-9.74l-8.54-49.41Z"/>
    <path d="M172.99,182.58h-8.47l-1.83-11.58h-19.55l-5.93,11.58h-8.89l25.91-49.41h10.24l8.54,49.41ZM146.8,163.74h14.68l-3.53-21.67-11.15,21.67Z"/>
    <path d="M186.32,133.17h20.33c9.88,0,14.33,4.66,13.91,12.85-.35,9.53-4.94,15.46-12.21,17.86l6.49,18.71h-8.75l-6.07-17.58h-10.87l-3.11,17.58h-8.4l8.68-49.41ZM190.41,157.66h11.15c4.87,0,9.74-2.26,10.17-10.23.42-4.66-1.83-6.92-6.64-6.92h-11.72l-2.96,17.15Z"/>
    <path d="M237.68,148.56l-6,34.02h-8.4l8.68-49.41h7.83l15.88,34.02,6-34.02h8.4l-8.68,49.41h-7.83l-15.88-34.02Z"/>
    <path d="M281.05,133.17h8.4l-8.68,49.41h-8.4l8.68-49.41Z"/>
    <path d="M315.04,162.4l-8.47-1.55c-7.83-1.48-10.8-5.72-10.8-11.08,0-8.68,5.93-17.29,20.61-17.29,11.44,0,17.86,5.01,15.95,15.88h-8.4c1.06-6-1.98-8.54-8.33-8.54s-10.94,2.47-10.94,8.19c0,2.47,1.62,4.45,5.29,5.15l8.47,1.55c8.12,1.55,10.8,5.79,10.8,10.87,0,9.46-6.42,17.72-20.75,17.72-11.44,0-18.14-5.01-16.24-15.88h8.4c-1.06,6,2.19,8.54,8.54,8.54s11.15-2.47,11.15-8.47c0-2.4-1.55-4.38-5.29-5.08Z"/>
    <path d="M369.03,161.55h-21.32l-3.67,21.04h-8.4l8.68-49.41h8.4l-3.74,21.04h21.32l3.74-21.04h8.4l-8.68,49.41h-8.4l3.67-21.04Z"/>
  </g>
  <g>
    <path class="st0" d="M69.71,106.37c4.77,13.22,19.37,20.06,32.58,15.29,13.22-4.78,20.06-19.36,15.29-32.58-4.78-13.22-19.36-20.06-32.58-15.29-13.22,4.78-20.06,19.37-15.29,32.59Z"/>
    <path class="st0" d="M49.15,149.69c-4.99,8.84-1.88,20.05,6.96,25.04,8.84,5,20.05,1.88,25.05-6.95,4.99-8.84,1.88-20.05-6.96-25.04-8.84-4.99-20.05-1.88-25.04,6.96Z"/>
    <path class="st0" d="M38.05,117.89c-1.16,5.76,2.57,11.37,8.33,12.54,5.76,1.16,11.37-2.56,12.53-8.32,1.17-5.76-2.56-11.38-8.32-12.54-5.76-1.17-11.37,2.56-12.54,8.32Z"/>
  </g>
  <text class="st1" transform="translate(92.04 225.5)"><tspan x="0" y="0">GATEWAY</tspan></text>
</svg>